#N canvas 45 22 1235 752 10;
#X obj 113 593 adc~ 1;
#X obj 113 617 hip~ 5;
#X msg 130 654 bang;
#X obj 112 682 tabwrite~ table19;
#N canvas 0 22 450 300 (subpatch) 0;
#X array table19 88206 float 0;
#X coords 0 1.02 88205 -1.02 200 130 1;
#X restore 111 427 graph;
#X msg 130 654 bang;
#N canvas 0 22 450 300 (subpatch) 0;
#X array graph19 88206 float 0;
#X coords 0 44100 88205 0 200 130 1;
#X restore 111 277 graph;
#X obj 112 682 tabwrite~ table19;
#X text 118 561 ====== 44103 samples ========;
#N canvas 0 22 450 300 (subpatch) 0;
#X array table20 44103 float 0;
#X coords 0 1.02 44100 -1.02 200 130 1;
#X restore 330 427 graph;
#X obj 333 594 adc~ 1;
#X obj 333 618 hip~ 5;
#X msg 351 651 bang;
#N canvas 0 22 450 300 (subpatch) 0;
#X array graph20 44100 float 2;
#X coords 0 44100 44100 0 200 130 1;
#X restore 330 277 graph;
#X text 330 563 ====== 44103 samples ========;
#X obj 333 679 tabwrite~ table20;
#N canvas 0 22 450 300 (subpatch) 0;
#X array table21 44103 float 0;
#X coords 0 1.02 44100 -1.02 200 130 1;
#X restore 546 427 graph;
#X obj 549 595 adc~ 1;
#X obj 549 619 hip~ 5;
#X msg 567 652 bang;
#N canvas 0 22 450 300 (subpatch) 0;
#X array graph21 44100 float 0;
#X coords 0 44100 44100 0 200 130 1;
#X restore 546 277 graph;
#X text 546 563 ====== 44103 samples ========;
#X obj 549 680 tabwrite~ table21;
#X obj 225 604 tgl 20 0 on_1 empty empty 0 -6 0 8 -4032 -1 -1 0 1;
#X obj 225 656 float;
#X floatatom 225 680 5 0 0 0 - - -;
#X obj 264 681 bng 15 250 50 0 empty empty empty 0 -6 0 8 -262144 -1
-1;
#X obj 282 653 + 1;
#X obj 446 602 tgl 20 0 empty empty empty 0 -6 0 8 -24198 -1 -1 0 1
;
#X obj 446 653 float;
#X floatatom 446 677 5 0 0 0 - - -;
#X obj 486 679 bng 15 250 50 0 empty empty empty 0 -6 0 8 -262144 -1
-1;
#X obj 660 603 tgl 20 0 empty empty empty 0 -6 0 8 -257985 -1 -1 0
1;
#X obj 660 655 float;
#X floatatom 660 679 5 0 0 0 - - -;
#X obj 700 680 bng 15 250 50 0 empty empty empty 0 -6 0 8 -262144 -1
-1;
#X obj 717 652 + 1;
#X obj 660 631 metro 4000;
#X obj 446 629 metro 3000;
#X obj 503 650 + 1;
#N canvas 26 25 1223 703 canal 0;
#X obj 84 517 hip~ 5;
#X floatatom 368 128 0 0 0 0 - - -;
#X floatatom 397 128 0 0 0 0 - - -;
#X obj 166 152 * 441;
#X obj 137 176 *~ 0;
#X obj 137 200 +~ 1;
#X msg 314 321 bang;
#X obj 84 493 *~;
#X obj 193 281 line~;
#X obj 193 233 * 441;
#X floatatom 431 128 0 0 0 0 - - -;
#X obj 193 257 pack 0 100;
#X obj 130 451 +~;
#X obj 80 230 -~ 0.5;
#X obj 134 88 phasor~;
#X obj 80 254 *~ 0.5;
#X obj 80 278 cos~;
#X obj 455 223 output~;
#X obj 130 475 tabread4~ table19;
#X obj 314 345 tabwrite~ graph19;
#X text 351 320 <-- graficar;
#X text 263 229 <-- lectura;
#X obj 493 200 bng 15 250 50 0 empty empty empty 17 7 0 10 -262144
-1 -1;
#X obj 368 162 vsl 15 128 0 80 0 0 empty empty empty 0 -9 0 10 -4032
-1 -1 0 1;
#X obj 397 162 vsl 15 128 0 80 0 0 empty empty empty 0 -9 0 10 -4032
-1 -1 0 1;
#X obj 428 162 vsl 15 128 0 80 0 0 empty empty empty 0 -9 0 10 -4032
-1 -1 0 1;
#X obj 518 194 tgl 20 0 empty empty empty 0 -6 0 8 -4032 -1 -1 0 1
;
#X obj 575 251 float;
#X floatatom 575 275 5 0 0 0 - - -;
#X obj 632 252 + 1;
#X obj 575 227 metro 1000;
#X connect 0 0 17 0;
#X connect 1 0 14 0;
#X connect 2 0 3 0;
#X connect 3 0 4 1;
#X connect 4 0 5 0;
#X connect 5 0 12 0;
#X connect 6 0 19 0;
#X connect 7 0 0 0;
#X connect 8 0 12 1;
#X connect 9 0 11 0;
#X connect 10 0 9 0;
#X connect 11 0 8 0;
#X connect 12 0 18 0;
#X connect 12 0 19 0;
#X connect 13 0 15 0;
#X connect 14 0 4 0;
#X connect 14 0 13 0;
#X connect 15 0 16 0;
#X connect 16 0 7 0;
#X connect 18 0 7 1;
#X connect 22 0 6 0;
#X connect 23 0 1 0;
#X connect 24 0 2 0;
#X connect 25 0 10 0;
#X connect 26 0 30 0;
#X connect 27 0 28 0;
#X connect 27 0 29 0;
#X connect 28 0 22 0;
#X connect 29 0 27 1;
#X connect 30 0 27 0;
#X coords 0 -1 1 1 200 200 1 350 100;
#X restore 112 58 pd canal 1;
#N canvas 129 83 1024 612 canal 0;
#X obj 460 230 output~;
#X obj 64 380 hip~ 5;
#X floatatom 364 132 0 0 0 0 - - -;
#X floatatom 396 133 0 0 0 0 - - -;
#X obj 135 141 * 441;
#X obj 106 165 *~ 0;
#X obj 106 189 +~ 1;
#X msg 171 283 bang;
#X obj 64 356 *~;
#X obj 129 283 line~;
#X obj 129 235 * 441;
#X floatatom 428 133 0 0 0 0 - - -;
#X obj 129 259 pack 0 100;
#X obj 107 318 +~;
#X obj 63 117 -~ 0.5;
#X obj 106 78 phasor~;
#X obj 63 141 *~ 0.5;
#X obj 63 165 cos~;
#X text 152 53 <-- frecuencia;
#X text 212 282 <-- graficar;
#X text 162 210 <-- lectura;
#X obj 171 307 tabwrite~ graph20;
#X obj 107 342 tabread4~ table20;
#X text 167 108 comment;
#X obj 502 205 bng 15 250 50 0 empty empty empty 17 7 0 10 -262144
-1 -1;
#X obj 364 158 vsl 15 128 0 127 0 0 empty empty empty 0 -9 0 10 -4034
-1 -1 0 1;
#X obj 396 159 vsl 15 128 0 127 0 0 empty empty empty 0 -9 0 10 -4034
-1 -1 0 1;
#X obj 428 159 vsl 15 128 0 127 0 0 empty empty empty 0 -9 0 10 -4034
-1 -1 0 1;
#X obj 524 200 tgl 20 0 empty empty empty 0 -6 0 8 -24198 -1 -1 0 1
;
#X obj 598 221 float;
#X floatatom 598 245 5 0 0 0 - - -;
#X obj 598 197 metro 3000;
#X obj 655 218 + 1;
#X connect 1 0 0 0;
#X connect 2 0 15 0;
#X connect 3 0 4 0;
#X connect 4 0 5 1;
#X connect 5 0 6 0;
#X connect 6 0 13 0;
#X connect 7 0 21 0;
#X connect 8 0 1 0;
#X connect 9 0 13 1;
#X connect 10 0 12 0;
#X connect 11 0 10 0;
#X connect 12 0 9 0;
#X connect 13 0 21 0;
#X connect 13 0 22 0;
#X connect 14 0 16 0;
#X connect 15 0 5 0;
#X connect 15 0 14 0;
#X connect 16 0 17 0;
#X connect 17 0 8 0;
#X connect 22 0 8 1;
#X connect 24 0 7 0;
#X connect 25 0 2 0;
#X connect 26 0 3 0;
#X connect 27 0 11 0;
#X connect 28 0 31 0;
#X connect 29 0 30 0;
#X connect 29 0 32 0;
#X connect 30 0 24 0;
#X connect 31 0 29 0;
#X connect 32 0 29 1;
#X coords 0 -1 1 1 200 200 1 350 100;
#X restore 330 59 pd canal 2;
#X text 172 653 comment;
#X text 172 653 comment;
#N canvas 0 22 1107 675 canal 0;
#X obj 461 335 output~;
#X obj 46 381 hip~ 5;
#X floatatom 367 235 0 0 0 0 - - -;
#X floatatom 396 235 0 0 0 0 - - -;
#X obj 111 138 * 441;
#X obj 82 164 *~ 0;
#X obj 82 188 +~ 1;
#X msg 148 283 bang;
#X obj 46 357 *~;
#X obj 105 283 line~;
#X obj 105 235 * 441;
#X floatatom 426 235 0 0 0 0 - - -;
#X obj 105 259 pack 0 100;
#X obj 83 316 +~;
#X obj 39 110 -~ 0.5;
#X obj 81 81 phasor~;
#X obj 39 134 *~ 0.5;
#X obj 39 158 cos~;
#X text 128 56 <-- frecuencia;
#X text 189 282 <-- graficar;
#X text 138 210 <-- lectura;
#X obj 148 307 tabwrite~ graph21;
#X obj 83 340 tabread4~ table21;
#X obj 500 312 bng 15 250 50 0 empty empty empty 17 7 0 10 -262144
-1 -1;
#X text 39 88 comment;
#X text 143 113 comment;
#X text 75 184 comment;
#X obj 367 261 vsl 15 128 0 127 0 0 empty empty empty 0 -9 0 10 -257985
-1 -1 0 1;
#X obj 396 261 vsl 15 128 0 127 0 0 empty empty empty 0 -9 0 10 -257985
-1 -1 0 1;
#X obj 426 261 vsl 15 128 0 127 0 0 empty empty empty 0 -9 0 10 -257985
-1 -1 0 1;
#X obj 524 309 tgl 20 0 empty empty empty 0 -6 0 8 -257985 -1 -1 0
1;
#X obj 623 331 float;
#X floatatom 623 355 5 0 0 0 - - -;
#X obj 680 328 + 1;
#X obj 623 307 metro 4000;
#X connect 1 0 0 0;
#X connect 2 0 15 0;
#X connect 3 0 4 0;
#X connect 4 0 5 1;
#X connect 5 0 6 0;
#X connect 6 0 13 0;
#X connect 7 0 21 0;
#X connect 8 0 1 0;
#X connect 9 0 13 1;
#X connect 10 0 12 0;
#X connect 11 0 10 0;
#X connect 12 0 9 0;
#X connect 13 0 21 0;
#X connect 13 0 22 0;
#X connect 14 0 16 0;
#X connect 15 0 5 0;
#X connect 15 0 14 0;
#X connect 16 0 17 0;
#X connect 17 0 8 0;
#X connect 22 0 8 1;
#X connect 23 0 7 0;
#X connect 27 0 2 0;
#X connect 28 0 3 0;
#X connect 29 0 11 0;
#X connect 30 0 34 0;
#X connect 31 0 32 0;
#X connect 31 0 33 0;
#X connect 32 0 23 0;
#X connect 33 0 31 1;
#X connect 34 0 31 0;
#X coords 0 -1 1 1 200 200 1 350 200;
#X restore 546 59 pd canal 3;
#N canvas 0 22 995 631 canal 0;
#X obj 461 335 output~;
#X obj 46 381 hip~ 5;
#X floatatom 367 235 0 0 0 0 - - -;
#X floatatom 396 235 0 0 0 0 - - -;
#X obj 111 138 * 441;
#X obj 82 164 *~ 0;
#X obj 82 188 +~ 1;
#X msg 148 283 bang;
#X obj 46 357 *~;
#X obj 105 283 line~;
#X obj 105 235 * 441;
#X floatatom 426 235 0 0 0 0 - - -;
#X obj 105 259 pack 0 100;
#X obj 83 316 +~;
#X obj 39 110 -~ 0.5;
#X obj 81 81 phasor~;
#X obj 39 134 *~ 0.5;
#X obj 39 158 cos~;
#X text 128 56 <-- frecuencia;
#X text 189 282 <-- graficar;
#X text 138 210 <-- lectura;
#X obj 500 312 bng 15 250 50 0 empty empty empty 17 7 0 10 -262144
-1 -1;
#X text 39 88 comment;
#X text 143 113 comment;
#X text 75 184 comment;
#X obj 367 261 vsl 15 128 0 127 0 0 empty empty empty 0 -9 0 10 -162280
-1 -1 0 1;
#X obj 396 261 vsl 15 128 0 127 0 0 empty empty empty 0 -9 0 10 -162280
-1 -1 0 1;
#X obj 426 261 vsl 15 128 0 127 0 0 empty empty empty 0 -9 0 10 -162280
-1 -1 0 1;
#X obj 524 309 tgl 20 0 empty empty empty 0 -6 0 8 -162280 -1 -1 0
1;
#X obj 623 331 float;
#X floatatom 623 355 5 0 0 0 - - -;
#X obj 680 328 + 1;
#X obj 148 307 tabwrite~ graph22;
#X obj 83 340 tabread4~ table22;
#X obj 623 307 metro 5000;
#X connect 1 0 0 0;
#X connect 2 0 15 0;
#X connect 3 0 4 0;
#X connect 4 0 5 1;
#X connect 5 0 6 0;
#X connect 6 0 13 0;
#X connect 7 0 32 0;
#X connect 8 0 1 0;
#X connect 9 0 13 1;
#X connect 10 0 12 0;
#X connect 11 0 10 0;
#X connect 12 0 9 0;
#X connect 13 0 32 0;
#X connect 13 0 33 0;
#X connect 14 0 16 0;
#X connect 15 0 5 0;
#X connect 15 0 14 0;
#X connect 16 0 17 0;
#X connect 17 0 8 0;
#X connect 21 0 7 0;
#X connect 25 0 2 0;
#X connect 26 0 3 0;
#X connect 27 0 11 0;
#X connect 28 0 34 0;
#X connect 29 0 30 0;
#X connect 29 0 31 0;
#X connect 30 0 21 0;
#X connect 31 0 29 1;
#X connect 33 0 8 1;
#X connect 34 0 29 0;
#X coords 0 -1 1 1 200 200 1 350 200;
#X restore 761 60 pd canal 4;
#N canvas 0 22 450 300 (subpatch) 0;
#X array table22 44103 float 0;
#X coords 0 1.02 44100 -1.02 200 130 1;
#X restore 762 427 graph;
#X obj 765 595 adc~ 1;
#X obj 765 619 hip~ 5;
#X msg 783 652 bang;
#N canvas 0 22 450 300 (subpatch) 0;
#X array graph22 44100 float 0;
#X coords 0 44100 44100 0 200 130 1;
#X restore 765 277 graph;
#X text 762 563 ====== 44103 samples ========;
#X obj 876 603 tgl 20 0 empty empty empty 0 -6 0 8 -162280 -1 -1 0
1;
#X obj 876 655 float;
#X floatatom 876 679 5 0 0 0 - - -;
#X obj 916 680 bng 15 250 50 0 empty empty empty 0 -6 0 8 -262144 -1
-1;
#X obj 933 652 + 1;
#X obj 765 680 tabwrite~ table22;
#X obj 876 631 metro 5000;
#X obj 225 633 metro 3000;
#X text 103 728 Patch para improvisación sonora_ DreamAddictive: 2008_2011
;
#X connect 0 0 1 0;
#X connect 1 0 3 0;
#X connect 2 0 3 0;
#X connect 5 0 7 0;
#X connect 10 0 11 0;
#X connect 11 0 15 0;
#X connect 12 0 15 0;
#X connect 17 0 18 0;
#X connect 18 0 22 0;
#X connect 19 0 22 0;
#X connect 23 0 59 0;
#X connect 24 0 25 0;
#X connect 24 0 27 0;
#X connect 25 0 26 0;
#X connect 26 0 2 0;
#X connect 27 0 24 1;
#X connect 28 0 38 0;
#X connect 29 0 30 0;
#X connect 29 0 39 0;
#X connect 30 0 31 0;
#X connect 31 0 12 0;
#X connect 32 0 37 0;
#X connect 33 0 34 0;
#X connect 33 0 36 0;
#X connect 34 0 35 0;
#X connect 35 0 19 0;
#X connect 36 0 33 1;
#X connect 37 0 33 0;
#X connect 38 0 29 0;
#X connect 39 0 29 1;
#X connect 47 0 48 0;
#X connect 48 0 57 0;
#X connect 49 0 57 0;
#X connect 52 0 58 0;
#X connect 53 0 54 0;
#X connect 53 0 56 0;
#X connect 54 0 55 0;
#X connect 55 0 49 0;
#X connect 56 0 53 1;
#X connect 58 0 53 0;
#X connect 59 0 24 0;
